<svg width="400" height="200" viewBox="0 0 400 200" fill="none" xmlns="http://www.w3.org/2000/svg">
<path d="M171 61.5C173.209 61.5 175 59.7091 175 57.5C175 55.2909 173.209 53.5 171 53.5C168.791 53.5 167 55.2909 167 57.5C167 59.7091 168.791 61.5 171 61.5Z" fill="#D7DFE3" stroke="#212A2F" stroke-width="2"/>
<path fill-rule="evenodd" clip-rule="evenodd" d="M192.368 51.3127L140.847 103.409L129.594 92.0138L188.922 32.0236C189.297 31.6444 189.808 31.4307 190.341 31.4299C191.446 31.4284 192.342 32.3226 192.344 33.4272L192.368 51.3127Z" fill="#E1E7EA" stroke="#212A2F" stroke-width="2"/>
<path d="M136.229 25.3814L92.7627 37.0283C91.6957 37.3141 91.0626 38.4108 91.3484 39.4778L94.9719 53.0007C95.2578 54.0676 96.3545 54.7008 97.4214 54.4149L140.888 42.7681C141.955 42.4822 142.588 41.3855 142.302 40.3186L138.679 26.7956C138.393 25.7287 137.296 25.0955 136.229 25.3814Z" fill="#E1E7EA" stroke="#212A2F" stroke-width="2"/>
<path fill-rule="evenodd" clip-rule="evenodd" d="M85.751 33.7306L137.833 19.7753L142.233 36.196L101.125 47.2109C99.9513 47.5254 98.6983 47.2893 97.7195 46.5692L85.0835 37.2735C84.1938 36.619 84.0031 35.3671 84.6576 34.4773C84.9267 34.1115 85.3123 33.8482 85.751 33.7306Z" fill="#E1E7EA" stroke="#212A2F" stroke-width="2"/>
<path d="M153.864 56.774H120.864V65.774H153.864V56.774Z" fill="#E1E7EA" stroke="#212A2F" stroke-width="2"/>
<path d="M124.364 35.774H123.364C120.878 35.774 118.864 37.7888 118.864 40.274V65.274C118.864 67.7593 120.878 69.774 123.364 69.774H124.364C126.849 69.774 128.864 67.7593 128.864 65.274V40.274C128.864 37.7888 126.849 35.774 124.364 35.774Z" fill="#E1E7EA" stroke="#212A2F" stroke-width="2"/>
<path fill-rule="evenodd" clip-rule="evenodd" d="M164.824 55.9707L148.56 72.2342L147.853 71.527C145.12 68.7934 145.12 64.3612 147.853 61.6276L154.217 55.2636C156.951 52.5299 161.383 52.5299 164.117 55.2636L164.824 55.9707Z" fill="#A5B6C0" stroke="#212A2F" stroke-width="2"/>
<path d="M123.864 63.774C124.968 63.774 125.864 62.8786 125.864 61.774C125.864 60.6695 124.968 59.774 123.864 59.774C122.759 59.774 121.864 60.6695 121.864 61.774C121.864 62.8786 122.759 63.774 123.864 63.774Z" fill="#212A2F"/>
<path fill-rule="evenodd" clip-rule="evenodd" d="M138.5 133.5H75.5V136.5H138.5V133.5ZM138.5 119.5H75.5V122.5H138.5V119.5Z" fill="#A5B6C0" stroke="#212A2F"/>
<path fill-rule="evenodd" clip-rule="evenodd" d="M135 108.586L139 112.586V142C139 143.105 138.105 144 137 144H133C131.895 144 131 143.105 131 142V112.586L135 108.586ZM121 108.586L125 112.586V142C125 143.105 124.105 144 123 144H119C117.895 144 117 143.105 117 142V112.586L121 108.586ZM107 108.586L111 112.586V142C111 143.105 110.105 144 109 144H105C103.895 144 103 143.105 103 142V112.586L107 108.586ZM93 108.586L97 112.586V142C97 143.105 96.1046 144 95 144H91C89.8954 144 89 143.105 89 142V112.586L93 108.586ZM79 108.586L83 112.586V142C83 143.105 82.1046 144 81 144H77C75.8954 144 75 143.105 75 142V112.586L79 108.586Z" fill="#E1E7EA" stroke="#212A2F" stroke-width="2"/>
<path fill-rule="evenodd" clip-rule="evenodd" d="M193.336 50.5227L204.567 46.5117C205.087 46.326 205.358 45.7537 205.173 45.2336C205.127 45.1051 205.055 44.9874 204.962 44.8877L193.731 32.8547C193.354 32.4509 192.721 32.4291 192.318 32.8059C192.115 32.9951 192 33.2598 192 33.537V49.581C192 50.1332 192.448 50.581 193 50.581C193.115 50.581 193.228 50.5613 193.336 50.5227Z" fill="#A5B6C0" stroke="#212A2F" stroke-width="2"/>
<path fill-rule="evenodd" clip-rule="evenodd" d="M195.395 30H280V46H206.421L193.972 33.406C193.196 32.6205 193.203 31.3542 193.989 30.5776C194.363 30.2076 194.868 30 195.395 30Z" fill="#E1E7EA" stroke="#212A2F" stroke-width="2"/>
<path d="M314.5 123H253.5C247.701 123 243 127.701 243 133.5C243 139.299 247.701 144 253.5 144H314.5C320.299 144 325 139.299 325 133.5C325 127.701 320.299 123 314.5 123Z" fill="#E1E7EA" stroke="#212A2F" stroke-width="2"/>
<path d="M315 113H254V123H315V113Z" fill="#455A67" stroke="#212A2F" stroke-width="2"/>
<path fill-rule="evenodd" clip-rule="evenodd" d="M290 97.1187H322C323.105 97.1187 324 98.0141 324 99.1187V111.119C324 112.223 323.105 113.119 322 113.119H290V97.1187Z" fill="#E1E7EA" stroke="#212A2F" stroke-width="2"/>
<path fill-rule="evenodd" clip-rule="evenodd" d="M258 113H291V75H275.824C275.569 75 275.324 75.0974 275.138 75.2724L258.314 91.1355C258.114 91.3244 258 91.5877 258 91.8631V113Z" fill="#E1E7EA" stroke="#212A2F" stroke-width="2"/>
<path d="M264 139C266.761 139 269 136.761 269 134C269 131.239 266.761 129 264 129C261.239 129 259 131.239 259 134C259 136.761 261.239 139 264 139Z" fill="#A5B6C0" stroke="#212A2F" stroke-width="2"/>
<path d="M284 139C286.761 139 289 136.761 289 134C289 131.239 286.761 129 284 129C281.239 129 279 131.239 279 134C279 136.761 281.239 139 284 139Z" fill="#A5B6C0" stroke="#212A2F" stroke-width="2"/>
<path d="M304 139C306.761 139 309 136.761 309 134C309 131.239 306.761 129 304 129C301.239 129 299 131.239 299 134C299 136.761 301.239 139 304 139Z" fill="#A5B6C0" stroke="#212A2F" stroke-width="2"/>
<path fill-rule="evenodd" clip-rule="evenodd" d="M262 87L251 67L255 59L269 81L262 87Z" fill="#A5B6C0" stroke="#212A2F" stroke-width="2"/>
<path fill-rule="evenodd" clip-rule="evenodd" d="M268.707 91.2929L278 82H286V93H269.414C268.862 93 268.414 92.5523 268.414 92C268.414 91.7348 268.52 91.4804 268.707 91.2929Z" fill="#E1E7EA" stroke="#212A2F" stroke-width="2"/>
<path d="M249.116 57.3252L212.59 86.9033C210.659 88.4673 210.361 91.301 211.925 93.2324L212.555 94.0095C214.119 95.941 216.952 96.2388 218.884 94.6747L255.409 65.0967C257.341 63.5327 257.639 60.699 256.075 58.7676L255.445 57.9904C253.881 56.059 251.048 55.7612 249.116 57.3252Z" fill="#E1E7EA" stroke="#212A2F" stroke-width="2"/>
<path d="M251.5 63C252.328 63 253 62.3284 253 61.5C253 60.6716 252.328 60 251.5 60C250.672 60 250 60.6716 250 61.5C250 62.3284 250.672 63 251.5 63Z" fill="#A5B6C0" stroke="#212A2F" stroke-width="2"/>
<path class="brand_element" d="M324 101H291V107H324V101Z" fill="#2592C3" stroke="#212A2F" stroke-width="2"/>
<path fill-rule="evenodd" clip-rule="evenodd" d="M192 65.6195L236 107.494V141.8C236 143.015 235.015 144 233.8 144H150.2C148.985 144 148 143.015 148 141.8V107.494L192 65.6195Z" fill="#E1E7EA" stroke="#212A2F" stroke-width="2"/>
<path d="M191 178C211.435 178 228 161.435 228 141C228 120.565 211.435 104 191 104C170.565 104 154 120.565 154 141C154 161.435 170.565 178 191 178Z" fill="#E1E7EA" stroke="#212A2F" stroke-width="2"/>
<path fill-rule="evenodd" clip-rule="evenodd" d="M191 122L208.076 138.997L203.158 144L193.999 134.925L194 160H188L187.999 135L179 144L174.081 138.997L186.011 127.011L186 127L191 122Z" fill="#212A2F"/>
</svg>
