<svg viewBox="0 0 20 20" xmlns="http://www.w3.org/2000/svg">
<path class="icon-with-fill" fill-rule="evenodd" clip-rule="evenodd" d="M11.6561 7.54635C11.6561 6.2506 12.7065 5.2002 14.0023 5.2002C15.298 5.2002 16.3484 6.2506 16.3484 7.54635V8.3284C16.3484 9.62415 15.298 10.6746 14.0023 10.6746C12.7065 10.6746 11.6561 9.62415 11.6561 8.3284V7.54635ZM11.2316 11.8764C11.8929 12.4612 12.3579 13.2989 12.4933 14.2663C12.522 14.4715 12.4567 14.6657 12.3347 14.8028H18.1859C18.4968 14.8028 18.7349 14.531 18.6888 14.2288C18.4648 12.7606 17.1816 11.6746 15.6712 11.6746H12.3333C11.9465 11.6746 11.5746 11.7458 11.2316 11.8764Z"/>
<path class="icon-with-fill" fill-rule="evenodd" clip-rule="evenodd" d="M6.09231 5.2002C4.79657 5.2002 3.74616 6.2506 3.74616 7.54635V8.3284C3.74616 9.62415 4.79657 10.6746 6.09231 10.6746C7.38806 10.6746 8.43846 9.62415 8.43846 8.3284V7.54635C8.43846 6.2506 7.38806 5.2002 6.09231 5.2002ZM1.40572 14.2288C1.62978 12.7606 2.91294 11.6746 4.42339 11.6746H7.76121C9.27166 11.6746 10.5548 12.7606 10.7789 14.2288C10.825 14.531 10.5869 14.8028 10.2759 14.8028H1.90867C1.59774 14.8028 1.3596 14.531 1.40572 14.2288Z"/>
</svg>
