<svg width="104" height="74" viewBox="0 0 104 74" fill="none" xmlns="http://www.w3.org/2000/svg">
<path d="M77.4506 28.4284C78.3819 31.1417 78.8164 33.9784 78.8164 37C78.8164 51.985 66.586 64.1334 51.4998 64.1334C36.4135 64.1334 24.1831 51.985 24.1831 37C24.1831 22.015 36.4135 9.8667 51.4998 9.8667C60.2535 9.8667 68.076 13.9984 73.0427 20.35" stroke="#44A624" stroke-width="3" stroke-miterlimit="10" stroke-linecap="round"/>
<path d="M35.979 35.1501L50.2582 49.3334L85.0248 14.8" stroke="#44A624" stroke-width="3" stroke-miterlimit="10" stroke-linecap="round" stroke-linejoin="round"/>
<path d="M3.0752 37H20.086" stroke="#698796" stroke-width="2" stroke-miterlimit="10" stroke-linecap="round" stroke-linejoin="round"/>
<path d="M82.9146 37H99.9254" stroke="#698796" stroke-width="2" stroke-miterlimit="10" stroke-linecap="round" stroke-linejoin="round"/>
<path d="M88.6879 43.5367L82.4175 42.4268" stroke="#698796" stroke-width="2" stroke-miterlimit="10" stroke-linecap="round" stroke-linejoin="round"/>
<path d="M20.5829 31.5734L14.3125 30.4634" stroke="#698796" stroke-width="2" stroke-miterlimit="10" stroke-linecap="round" stroke-linejoin="round"/>
<path d="M14.3125 43.5367L20.5829 42.4268" stroke="#698796" stroke-width="2" stroke-miterlimit="10" stroke-linecap="round" stroke-linejoin="round"/>
<path d="M82.4175 31.5734L88.6879 30.4634" stroke="#698796" stroke-width="2" stroke-miterlimit="10" stroke-linecap="round" stroke-linejoin="round"/>
<path d="M17.2925 70.9785L29.3367 59.0151" stroke="#698796" stroke-width="2" stroke-miterlimit="10" stroke-linecap="round" stroke-linejoin="round"/>
<path d="M73.6641 14.9851L85.7082 3.02173" stroke="#698796" stroke-width="2" stroke-miterlimit="10" stroke-linecap="round" stroke-linejoin="round"/>
<path d="M29.833 67.71L33.4959 62.53" stroke="#698796" stroke-width="2" stroke-miterlimit="10" stroke-linecap="round" stroke-linejoin="round"/>
<path d="M69.5044 11.47L73.1673 6.29004" stroke="#698796" stroke-width="2" stroke-miterlimit="10" stroke-linecap="round" stroke-linejoin="round"/>
<path d="M85.7082 70.9785L73.6641 59.0151" stroke="#698796" stroke-width="2" stroke-miterlimit="10" stroke-linecap="round" stroke-linejoin="round"/>
<path d="M29.3367 14.9851L17.2925 3.02173" stroke="#698796" stroke-width="2" stroke-miterlimit="10" stroke-linecap="round" stroke-linejoin="round"/>
<path d="M73.1673 67.71L69.5044 62.53" stroke="#698796" stroke-width="2" stroke-miterlimit="10" stroke-linecap="round" stroke-linejoin="round"/>
<path d="M33.4959 11.47L29.833 6.29004" stroke="#698796" stroke-width="2" stroke-miterlimit="10" stroke-linecap="round" stroke-linejoin="round"/>
</svg>
