<svg width="50" height="51" viewBox="0 0 50 51" fill="none" xmlns="http://www.w3.org/2000/svg">
<style type="text/css">
    .no-results-icon{
        fill: #53707F;
    }
</style>
<path class="no-results-icon" d="M19.4764 0C30.2329 0 38.9527 8.71987 38.9527 19.4764C38.9527 24.57 36.9974 29.207 33.7964 32.6775L50 48.88L47.8812 50.9988L31.6008 34.7196C28.2739 37.3693 24.0601 38.9527 19.4764 38.9527C8.71987 38.9527 0 30.2329 0 19.4764C0 8.71987 8.71987 0 19.4764 0ZM19.4764 1.99758C9.8231 1.99758 1.99758 9.8231 1.99758 19.4764C1.99758 29.1296 9.8231 36.9552 19.4764 36.9552C29.1296 36.9552 36.9552 29.1296 36.9552 19.4764C36.9552 9.8231 29.1296 1.99758 19.4764 1.99758ZM14.5952 13.1937L14.6893 13.2768L19.4764 18.0631L24.2635 13.2768L24.3575 13.1937C24.7494 12.889 25.3159 12.9167 25.676 13.2768C26.066 13.6668 26.066 14.2992 25.676 14.6893L20.8897 19.4764L25.676 24.2635C26.066 24.6535 26.066 25.2859 25.676 25.676C25.3159 26.036 24.7494 26.0637 24.3575 25.759L24.2635 25.676L19.4764 20.8897L14.6893 25.676L14.5952 25.759C14.2034 26.0637 13.6368 26.036 13.2768 25.676C12.8867 25.2859 12.8867 24.6535 13.2768 24.2635L18.0631 19.4764L13.2768 14.6893C12.8867 14.2992 12.8867 13.6668 13.2768 13.2768C13.6368 12.9167 14.2034 12.889 14.5952 13.1937Z" />
</svg>
