<?xml version="1.0" encoding="utf-8"?>
<svg version="1.1" id="Layer_1" xmlns="http://www.w3.org/2000/svg" xmlns:xlink="http://www.w3.org/1999/xlink" x="2px" y="0px"
	 viewBox="-2 0 22 20" style="enable-background:new 0 0 20 20;" xml:space="preserve">
<style type="text/css">
	.st0{fill-rule:evenodd;clip-rule:evenodd;fill:#2B383F;}
</style>
<path fill-rule="evenodd" clip-rule="evenodd" d="M10 2.58582L10.7071 3.29292L18.7071 11.2929L17.2929 12.7071L10 5.41424L2.70712 12.7071L1.29291 11.2929L9.29291 3.29292L10 2.58582ZM4.00002 15C4.00002 13.8955 4.89545 13 6.00002 13H7.00002C7.00002 11.3432 8.34316 10 10 10C11.6569 10 13 11.3432 13 13H14C15.1046 13 16 13.8955 16 15C16 16.1046 15.1046 17 14 17H6.00002C4.89545 17 4.00002 16.1046 4.00002 15Z" class="st0" style="stroke: none !important;"/>
</svg>
